<?xml version="1.0" standalone="no"?>
<!DOCTYPE svg PUBLIC "-//W3C//DTD SVG 20010904//EN"
 "http://www.w3.org/TR/2001/REC-SVG-20010904/DTD/svg10.dtd">
<svg version="1.0" xmlns="http://www.w3.org/2000/svg"
 width="1200.000000pt" height="600.000000pt" viewBox="0 0 1200.000000 600.000000"
 preserveAspectRatio="xMidYMid meet">

<g transform="translate(0.000000,600.000000) scale(0.100000,-0.100000)"
fill="#22223B" stroke="none">
<path d="M11220 5989 c-436 -31 -830 -139 -1235 -339 -740 -364 -1271 -947
-1500 -1645 -49 -148 -86 -308 -112 -475 -15 -104 -17 -264 -20 -1747 l-4
-1633 731 0 730 0 2 787 3 788 1058 3 1057 2 0 625 0 625 -1075 0 -1075 0 0
28 c1 45 27 233 44 307 43 189 144 434 243 594 250 401 662 685 1148 792 87
19 140 22 408 26 l307 5 0 634 0 634 -302 -1 c-167 -1 -350 -5 -408 -10z"/>
<path d="M0 3071 l0 -2901 1228 0 c774 0 1269 4 1342 11 1007 91 1876 677
2335 1575 119 231 217 520 265 781 20 106 21 129 11 185 -19 101 -25 334 -12
444 44 369 196 679 461 945 192 192 386 312 635 392 187 60 266 72 485 72 227
0 321 -14 503 -75 244 -82 440 -204 628 -390 129 -128 238 -282 310 -435 l43
-90 17 95 c81 454 280 888 574 1252 l83 103 -71 73 c-355 363 -857 642 -1391
773 -368 90 -800 103 -1191 38 -741 -124 -1414 -533 -1874 -1138 -225 -296
-411 -680 -505 -1043 -60 -233 -80 -373 -78 -548 4 -365 -54 -643 -197 -945
-77 -161 -144 -258 -261 -375 -170 -171 -355 -274 -615 -343 -76 -20 -108 -21
-662 -24 l-583 -4 0 1596 0 1596 598 -3 597 -3 89 -28 c365 -114 679 -400 882
-804 l51 -102 43 132 c131 408 353 815 611 1120 l69 82 -67 63 c-405 378 -929
646 -1478 757 -289 59 -263 58 -1622 62 l-1253 4 0 -2900z"/>
<path d="M5280 2307 c-6 -23 -33 -112 -60 -197 -119 -369 -310 -712 -569
-1021 l-94 -113 118 -114 c493 -476 1084 -753 1775 -833 151 -17 498 -15 653
5 354 45 704 152 1010 308 l97 50 0 971 0 971 -41 -79 c-224 -439 -654 -752
-1154 -840 -140 -25 -381 -23 -535 4 -489 86 -911 395 -1140 835 l-49 95 -11
-42z"/>
</g>
</svg>
