<svg xmlns="http://www.w3.org/2000/svg" xmlns:xlink="http://www.w3.org/1999/xlink" width="442" zoomAndPan="magnify" viewBox="0 0 331.5 97.5" height="130" preserveAspectRatio="xMidYMid meet" version="1.0"><defs><g/><clipPath id="c87a5b5b1a"><path d="M 0.597656 1.585938 L 153 1.585938 L 153 78.792969 L 0.597656 78.792969 Z M 0.597656 1.585938 " clip-rule="nonzero"/></clipPath><clipPath id="35497ed9ad"><path d="M 8.058594 1.585938 L 145.507812 1.585938 C 147.488281 1.585938 149.386719 2.375 150.785156 3.773438 C 152.183594 5.171875 152.96875 7.070312 152.96875 9.050781 L 152.96875 71.332031 C 152.96875 73.308594 152.183594 75.207031 150.785156 76.609375 C 149.386719 78.007812 147.488281 78.792969 145.507812 78.792969 L 8.058594 78.792969 C 6.078125 78.792969 4.183594 78.007812 2.78125 76.609375 C 1.382812 75.207031 0.597656 73.308594 0.597656 71.332031 L 0.597656 9.050781 C 0.597656 7.070312 1.382812 5.171875 2.78125 3.773438 C 4.183594 2.375 6.078125 1.585938 8.058594 1.585938 Z M 8.058594 1.585938 " clip-rule="nonzero"/></clipPath><clipPath id="b4538042d3"><path d="M 0.605469 1.585938 L 152.816406 1.585938 L 152.816406 78.441406 L 0.605469 78.441406 Z M 0.605469 1.585938 " clip-rule="nonzero"/></clipPath><clipPath id="463be9c962"><path d="M 8.066406 1.585938 L 145.496094 1.585938 C 147.476562 1.585938 149.375 2.375 150.773438 3.773438 C 152.171875 5.171875 152.957031 7.070312 152.957031 9.046875 L 152.957031 71.320312 C 152.957031 73.300781 152.171875 75.195312 150.773438 76.597656 C 149.375 77.996094 147.476562 78.78125 145.496094 78.78125 L 8.066406 78.78125 C 6.089844 78.78125 4.191406 77.996094 2.792969 76.597656 C 1.394531 75.195312 0.605469 73.300781 0.605469 71.320312 L 0.605469 9.046875 C 0.605469 7.070312 1.394531 5.171875 2.792969 3.773438 C 4.191406 2.375 6.089844 1.585938 8.066406 1.585938 Z M 8.066406 1.585938 " clip-rule="nonzero"/></clipPath><clipPath id="36e5c3dbf3"><path d="M 152.96875 1.585938 L 330.40625 1.585938 L 330.40625 78.792969 L 152.96875 78.792969 Z M 152.96875 1.585938 " clip-rule="nonzero"/></clipPath><clipPath id="4ae8c99085"><path d="M 160.433594 1.585938 L 322.945312 1.585938 C 324.921875 1.585938 326.820312 2.375 328.21875 3.773438 C 329.621094 5.171875 330.40625 7.070312 330.40625 9.050781 L 330.40625 71.332031 C 330.40625 73.308594 329.621094 75.207031 328.21875 76.609375 C 326.820312 78.007812 324.921875 78.792969 322.945312 78.792969 L 160.433594 78.792969 C 158.453125 78.792969 156.554688 78.007812 155.15625 76.609375 C 153.757812 75.207031 152.96875 73.308594 152.96875 71.332031 L 152.96875 9.050781 C 152.96875 7.070312 153.757812 5.171875 155.15625 3.773438 C 156.554688 2.375 158.453125 1.585938 160.433594 1.585938 Z M 160.433594 1.585938 " clip-rule="nonzero"/></clipPath><clipPath id="7ce76825ba"><path d="M 152.980469 1.585938 L 330.40625 1.585938 L 330.40625 78.441406 L 152.980469 78.441406 Z M 152.980469 1.585938 " clip-rule="nonzero"/></clipPath><clipPath id="554720379a"><path d="M 160.4375 1.585938 L 322.925781 1.585938 C 324.90625 1.585938 326.804688 2.375 328.203125 3.773438 C 329.601562 5.171875 330.386719 7.070312 330.386719 9.046875 L 330.386719 71.320312 C 330.386719 73.300781 329.601562 75.195312 328.203125 76.597656 C 326.804688 77.996094 324.90625 78.78125 322.925781 78.78125 L 160.4375 78.78125 C 158.460938 78.78125 156.5625 77.996094 155.164062 76.597656 C 153.765625 75.195312 152.980469 73.300781 152.980469 71.320312 L 152.980469 9.046875 C 152.980469 7.070312 153.765625 5.171875 155.164062 3.773438 C 156.5625 2.375 158.460938 1.585938 160.4375 1.585938 Z M 160.4375 1.585938 " clip-rule="nonzero"/></clipPath></defs><g clip-path="url(#c87a5b5b1a)"><g clip-path="url(#35497ed9ad)"><path fill="#071b29" d="M 0.597656 1.585938 L 152.898438 1.585938 L 152.898438 78.792969 L 0.597656 78.792969 Z M 0.597656 1.585938 " fill-opacity="1" fill-rule="nonzero"/></g></g><g clip-path="url(#b4538042d3)"><g clip-path="url(#463be9c962)"><path stroke-linecap="butt" transform="matrix(0.746173, 0, 0, 0.746173, 0.607299, 1.587404)" fill="none" stroke-linejoin="miter" d="M 9.996479 -0.00196549 L 194.17576 -0.00196549 C 196.829927 -0.00196549 199.374158 1.055513 201.248303 2.929659 C 203.122449 4.803804 204.174692 7.348035 204.174692 9.996967 L 204.174692 93.454021 C 204.174692 96.108188 203.122449 98.647184 201.248303 100.526564 C 199.374158 102.40071 196.829927 103.452953 194.17576 103.452953 L 9.996479 103.452953 C 7.347547 103.452953 4.803317 102.40071 2.929171 100.526564 C 1.055026 98.647184 -0.00245284 96.108188 -0.00245284 93.454021 L -0.00245284 9.996967 C -0.00245284 7.348035 1.055026 4.803804 2.929171 2.929659 C 4.803317 1.055513 7.347547 -0.00196549 9.996479 -0.00196549 Z M 9.996479 -0.00196549 " stroke="#ffffff" stroke-width="6" stroke-opacity="1" stroke-miterlimit="4"/></g></g><g clip-path="url(#36e5c3dbf3)"><g clip-path="url(#4ae8c99085)"><path fill="#ffffff" d="M 152.96875 1.585938 L 330.300781 1.585938 L 330.300781 78.792969 L 152.96875 78.792969 Z M 152.96875 1.585938 " fill-opacity="1" fill-rule="nonzero"/></g></g><g clip-path="url(#7ce76825ba)"><g clip-path="url(#554720379a)"><path stroke-linecap="butt" transform="matrix(0.746173, 0, 0, 0.746173, 152.978554, 1.587404)" fill="none" stroke-linejoin="miter" d="M 9.996263 -0.00196549 L 227.758345 -0.00196549 C 230.412512 -0.00196549 232.956743 1.055513 234.830888 2.929659 C 236.705033 4.803804 237.757277 7.348035 237.757277 9.996967 L 237.757277 93.454021 C 237.757277 96.108188 236.705033 98.647184 234.830888 100.526564 C 232.956743 102.40071 230.412512 103.452953 227.758345 103.452953 L 9.996263 103.452953 C 7.347332 103.452953 4.803101 102.40071 2.928955 100.526564 C 1.05481 98.647184 0.00256634 96.108188 0.00256634 93.454021 L 0.00256634 9.996967 C 0.00256634 7.348035 1.05481 4.803804 2.928955 2.929659 C 4.803101 1.055513 7.347332 -0.00196549 9.996263 -0.00196549 Z M 9.996263 -0.00196549 " stroke="#071b29" stroke-width="6" stroke-opacity="1" stroke-miterlimit="4"/></g></g><g fill="#ffffff" fill-opacity="1"><g transform="translate(6.749373, 70.885156)"><g><path d="M 2.71875 -61.375 L 19.65625 -61.375 C 24.03125 -61.375 27.3125 -60.160156 29.5 -57.734375 C 31.695312 -55.304688 32.820312 -51.707031 32.875 -46.9375 L 33.015625 -18.21875 C 33.054688 -12.164062 32.003906 -7.613281 29.859375 -4.5625 C 27.722656 -1.519531 24.175781 0 19.21875 0 L 2.71875 0 Z M 17.21875 -10.859375 C 19.457031 -10.859375 20.578125 -11.953125 20.578125 -14.140625 L 20.578125 -45.796875 C 20.578125 -47.179688 20.46875 -48.21875 20.25 -48.90625 C 20.039062 -49.601562 19.648438 -50.066406 19.078125 -50.296875 C 18.503906 -50.535156 17.625 -50.65625 16.4375 -50.65625 L 15.078125 -50.65625 L 15.078125 -10.859375 Z M 17.21875 -10.859375 "/></g></g></g><g fill="#ffffff" fill-opacity="1"><g transform="translate(41.972806, 70.885156)"><g><path d="M 17.359375 0.578125 C 12.410156 0.578125 8.648438 -0.929688 6.078125 -3.953125 C 3.503906 -6.984375 2.21875 -11.238281 2.21875 -16.71875 L 2.21875 -45.9375 C 2.21875 -51.226562 3.503906 -55.21875 6.078125 -57.90625 C 8.648438 -60.601562 12.410156 -61.953125 17.359375 -61.953125 C 22.316406 -61.953125 26.082031 -60.601562 28.65625 -57.90625 C 31.226562 -55.21875 32.515625 -51.226562 32.515625 -45.9375 L 32.515625 -16.71875 C 32.515625 -11.195312 31.226562 -6.929688 28.65625 -3.921875 C 26.082031 -0.921875 22.316406 0.578125 17.359375 0.578125 Z M 17.359375 -10.71875 C 18.453125 -10.71875 19.191406 -11.191406 19.578125 -12.140625 C 19.960938 -13.097656 20.15625 -14.429688 20.15625 -16.140625 L 20.15625 -46.15625 C 20.15625 -47.488281 19.972656 -48.570312 19.609375 -49.40625 C 19.253906 -50.238281 18.53125 -50.65625 17.4375 -50.65625 C 15.382812 -50.65625 14.359375 -49.109375 14.359375 -46.015625 L 14.359375 -16.078125 C 14.359375 -14.316406 14.570312 -12.984375 15 -12.078125 C 15.425781 -11.171875 16.210938 -10.71875 17.359375 -10.71875 Z M 17.359375 -10.71875 "/></g></g></g><g fill="#ffffff" fill-opacity="1"><g transform="translate(76.696108, 70.885156)"><g><path d="M 17 0.578125 C 12.53125 0.578125 8.945312 -0.828125 6.25 -3.640625 C 3.5625 -6.453125 2.21875 -10.3125 2.21875 -15.21875 L 2.21875 -43.515625 C 2.21875 -49.609375 3.429688 -54.203125 5.859375 -57.296875 C 8.285156 -60.398438 12.097656 -61.953125 17.296875 -61.953125 C 21.816406 -61.953125 25.457031 -60.710938 28.21875 -58.234375 C 30.988281 -55.753906 32.375 -52.179688 32.375 -47.515625 L 32.375 -36.9375 L 20.15625 -36.9375 L 20.15625 -46.015625 C 20.15625 -47.773438 19.9375 -48.988281 19.5 -49.65625 C 19.070312 -50.320312 18.335938 -50.65625 17.296875 -50.65625 C 16.191406 -50.65625 15.4375 -50.273438 15.03125 -49.515625 C 14.632812 -48.753906 14.4375 -47.632812 14.4375 -46.15625 L 14.4375 -15.359375 C 14.4375 -13.742188 14.671875 -12.566406 15.140625 -11.828125 C 15.617188 -11.085938 16.335938 -10.71875 17.296875 -10.71875 C 19.203125 -10.71875 20.15625 -12.265625 20.15625 -15.359375 L 20.15625 -26.4375 L 32.515625 -26.4375 L 32.515625 -14.859375 C 32.515625 -4.566406 27.34375 0.578125 17 0.578125 Z M 17 0.578125 "/></g></g></g><g fill="#ffffff" fill-opacity="1"><g transform="translate(110.562045, 70.885156)"><g><path d="M 2.71875 0 L 2.71875 -61.375 L 14.859375 -61.375 L 14.859375 -36.796875 L 20.578125 -61.375 L 32.9375 -61.375 L 26.078125 -33.296875 L 34.375 0 L 21.65625 0 L 14.9375 -29.71875 L 14.9375 0 Z M 2.71875 0 "/></g></g></g><g fill="#071b29" fill-opacity="1"><g transform="translate(156.421381, 70.885156)"><g><path d="M 17 0.578125 C 12.53125 0.578125 8.945312 -0.828125 6.25 -3.640625 C 3.5625 -6.453125 2.21875 -10.3125 2.21875 -15.21875 L 2.21875 -43.515625 C 2.21875 -49.609375 3.429688 -54.203125 5.859375 -57.296875 C 8.285156 -60.398438 12.097656 -61.953125 17.296875 -61.953125 C 21.816406 -61.953125 25.457031 -60.710938 28.21875 -58.234375 C 30.988281 -55.753906 32.375 -52.179688 32.375 -47.515625 L 32.375 -36.9375 L 20.15625 -36.9375 L 20.15625 -46.015625 C 20.15625 -47.773438 19.9375 -48.988281 19.5 -49.65625 C 19.070312 -50.320312 18.335938 -50.65625 17.296875 -50.65625 C 16.191406 -50.65625 15.4375 -50.273438 15.03125 -49.515625 C 14.632812 -48.753906 14.4375 -47.632812 14.4375 -46.15625 L 14.4375 -15.359375 C 14.4375 -13.742188 14.671875 -12.566406 15.140625 -11.828125 C 15.617188 -11.085938 16.335938 -10.71875 17.296875 -10.71875 C 19.203125 -10.71875 20.15625 -12.265625 20.15625 -15.359375 L 20.15625 -26.4375 L 32.515625 -26.4375 L 32.515625 -14.859375 C 32.515625 -4.566406 27.34375 0.578125 17 0.578125 Z M 17 0.578125 "/></g></g></g><g fill="#071b29" fill-opacity="1"><g transform="translate(190.287318, 70.885156)"><g><path d="M 2.71875 0 L 2.71875 -61.375 L 14.9375 -61.375 L 14.9375 -39.4375 L 20.71875 -39.4375 L 20.71875 -61.375 L 32.9375 -61.375 L 32.9375 0 L 20.71875 0 L 20.71875 -27.859375 L 14.9375 -27.859375 L 14.9375 0 Z M 2.71875 0 "/></g></g></g><g fill="#071b29" fill-opacity="1"><g transform="translate(225.939441, 70.885156)"><g><path d="M 2.71875 0 L 2.71875 -61.375 L 27.296875 -61.375 L 27.296875 -49.515625 L 15.21875 -49.515625 L 15.21875 -37.578125 L 26.796875 -37.578125 L 26.796875 -26.015625 L 15.21875 -26.015625 L 15.21875 -11.9375 L 28.078125 -11.9375 L 28.078125 0 Z M 2.71875 0 "/></g></g></g><g fill="#071b29" fill-opacity="1"><g transform="translate(255.37566, 70.885156)"><g><path d="M 17 0.578125 C 12.53125 0.578125 8.945312 -0.828125 6.25 -3.640625 C 3.5625 -6.453125 2.21875 -10.3125 2.21875 -15.21875 L 2.21875 -43.515625 C 2.21875 -49.609375 3.429688 -54.203125 5.859375 -57.296875 C 8.285156 -60.398438 12.097656 -61.953125 17.296875 -61.953125 C 21.816406 -61.953125 25.457031 -60.710938 28.21875 -58.234375 C 30.988281 -55.753906 32.375 -52.179688 32.375 -47.515625 L 32.375 -36.9375 L 20.15625 -36.9375 L 20.15625 -46.015625 C 20.15625 -47.773438 19.9375 -48.988281 19.5 -49.65625 C 19.070312 -50.320312 18.335938 -50.65625 17.296875 -50.65625 C 16.191406 -50.65625 15.4375 -50.273438 15.03125 -49.515625 C 14.632812 -48.753906 14.4375 -47.632812 14.4375 -46.15625 L 14.4375 -15.359375 C 14.4375 -13.742188 14.671875 -12.566406 15.140625 -11.828125 C 15.617188 -11.085938 16.335938 -10.71875 17.296875 -10.71875 C 19.203125 -10.71875 20.15625 -12.265625 20.15625 -15.359375 L 20.15625 -26.4375 L 32.515625 -26.4375 L 32.515625 -14.859375 C 32.515625 -4.566406 27.34375 0.578125 17 0.578125 Z M 17 0.578125 "/></g></g></g><g fill="#071b29" fill-opacity="1"><g transform="translate(289.241597, 70.885156)"><g><path d="M 2.71875 0 L 2.71875 -61.375 L 14.859375 -61.375 L 14.859375 -36.796875 L 20.578125 -61.375 L 32.9375 -61.375 L 26.078125 -33.296875 L 34.375 0 L 21.65625 0 L 14.9375 -29.71875 L 14.9375 0 Z M 2.71875 0 "/></g></g></g><g fill="#ffffff" fill-opacity="1"><g transform="translate(186.334942, 90.691189)"><g><path d="M 1.773438 -9.160156 C 1.425781 -9.160156 1.152344 -8.875 1.152344 -8.542969 L 1.152344 -0.578125 C 1.152344 -0.246094 1.425781 0.0273438 1.773438 0.0273438 C 2.101562 0.0273438 2.40625 -0.316406 2.40625 -0.664062 L 2.40625 -2.792969 L 3.703125 -2.792969 C 5.648438 -2.792969 6.800781 -3.890625 6.800781 -5.890625 L 6.800781 -6.066406 C 6.800781 -8.285156 5.445312 -9.160156 3.703125 -9.160156 Z M 3.628906 -7.910156 C 5.011719 -7.910156 5.546875 -7.289062 5.546875 -6.066406 L 5.546875 -5.90625 C 5.546875 -4.308594 4.710938 -3.992188 3.617188 -3.992188 L 2.40625 -3.992188 L 2.40625 -7.910156 Z M 3.628906 -7.910156 "/></g></g></g><g fill="#ffffff" fill-opacity="1"><g transform="translate(193.566661, 90.691189)"><g><path d="M 0.621094 -2.320312 C 0.621094 -0.9375 1.757812 0.117188 3.210938 0.117188 C 4.652344 0.117188 5.804688 -0.9375 5.804688 -2.320312 L 5.804688 -4.320312 C 5.804688 -5.703125 4.652344 -6.757812 3.210938 -6.757812 C 1.757812 -6.757812 0.621094 -5.703125 0.621094 -4.320312 Z M 1.84375 -4.207031 C 1.84375 -5.027344 2.433594 -5.546875 3.210938 -5.546875 C 3.976562 -5.546875 4.59375 -5.027344 4.59375 -4.207031 L 4.59375 -2.449219 C 4.59375 -1.597656 3.976562 -1.082031 3.210938 -1.082031 C 2.449219 -1.082031 1.84375 -1.613281 1.84375 -2.449219 Z M 1.84375 -4.207031 "/></g></g></g><g fill="#ffffff" fill-opacity="1"><g transform="translate(199.991645, 90.691189)"><g><path d="M 8.007812 -6.667969 C 7.75 -6.683594 7.546875 -6.539062 7.476562 -6.222656 L 6.136719 -1.46875 L 4.925781 -5.011719 L 5.230469 -5.878906 C 5.386719 -6.339844 5.054688 -6.667969 4.652344 -6.667969 C 4.394531 -6.667969 4.175781 -6.570312 4.089844 -6.179688 L 2.664062 -1.453125 L 1.355469 -6.222656 C 1.28125 -6.539062 1.09375 -6.667969 0.820312 -6.667969 C 0.390625 -6.667969 0.0429688 -6.351562 0.203125 -5.878906 L 1.871094 -0.503906 C 1.988281 -0.0859375 2.304688 0.0859375 2.609375 0.0859375 C 2.9375 0.0859375 3.167969 -0.0703125 3.328125 -0.445312 L 4.421875 -3.585938 L 5.503906 -0.445312 C 5.648438 -0.0703125 5.90625 0.0859375 6.222656 0.0859375 C 6.539062 0.0859375 6.828125 -0.101562 6.957031 -0.503906 L 8.628906 -5.878906 C 8.789062 -6.367188 8.414062 -6.667969 8.007812 -6.667969 Z M 8.007812 -6.667969 "/></g></g></g><g fill="#ffffff" fill-opacity="1"><g transform="translate(208.822397, 90.691189)"><g><path d="M 3.226562 -6.742188 C 1.683594 -6.742188 0.621094 -5.648438 0.621094 -4.308594 L 0.621094 -2.304688 C 0.621094 -1.050781 1.683594 0.128906 3.226562 0.128906 C 4.378906 0.128906 4.941406 -0.546875 5.332031 -1.050781 C 5.691406 -1.511719 5.445312 -2.074219 4.882812 -2.074219 C 4.695312 -2.074219 4.550781 -2.003906 4.453125 -1.785156 C 4.320312 -1.5 3.933594 -1.066406 3.269531 -1.066406 C 2.390625 -1.066406 1.871094 -1.640625 1.871094 -2.390625 L 1.871094 -2.953125 L 5.34375 -2.953125 C 5.660156 -2.953125 5.820312 -2.996094 5.820312 -3.300781 L 5.820312 -4.265625 C 5.820312 -5.617188 4.753906 -6.742188 3.226562 -6.742188 Z M 1.871094 -4.207031 C 1.871094 -5 2.449219 -5.589844 3.226562 -5.589844 C 4.019531 -5.589844 4.625 -4.96875 4.625 -4.207031 L 4.625 -3.933594 L 1.871094 -3.933594 Z M 1.871094 -4.207031 "/></g></g></g><g fill="#ffffff" fill-opacity="1"><g transform="translate(215.074517, 90.691189)"><g><path d="M 3.617188 -6.65625 C 3.082031 -6.65625 2.621094 -6.46875 2.261719 -6.136719 C 2.246094 -6.453125 2.046875 -6.699219 1.640625 -6.699219 C 1.269531 -6.699219 1.039062 -6.425781 1.039062 -6.078125 L 1.039062 -0.589844 C 1.039062 -0.230469 1.3125 0.0429688 1.65625 0.0429688 C 2.003906 0.0429688 2.261719 -0.230469 2.261719 -0.589844 L 2.261719 -4.148438 C 2.261719 -5.011719 2.953125 -5.445312 3.660156 -5.445312 L 3.832031 -5.445312 C 4.234375 -5.445312 4.4375 -5.675781 4.4375 -6.035156 C 4.4375 -6.394531 4.207031 -6.65625 3.789062 -6.65625 Z M 3.617188 -6.65625 "/></g></g></g><g fill="#ffffff" fill-opacity="1"><g transform="translate(219.713186, 90.691189)"><g><path d="M 3.226562 -6.742188 C 1.683594 -6.742188 0.621094 -5.648438 0.621094 -4.308594 L 0.621094 -2.304688 C 0.621094 -1.050781 1.683594 0.128906 3.226562 0.128906 C 4.378906 0.128906 4.941406 -0.546875 5.332031 -1.050781 C 5.691406 -1.511719 5.445312 -2.074219 4.882812 -2.074219 C 4.695312 -2.074219 4.550781 -2.003906 4.453125 -1.785156 C 4.320312 -1.5 3.933594 -1.066406 3.269531 -1.066406 C 2.390625 -1.066406 1.871094 -1.640625 1.871094 -2.390625 L 1.871094 -2.953125 L 5.34375 -2.953125 C 5.660156 -2.953125 5.820312 -2.996094 5.820312 -3.300781 L 5.820312 -4.265625 C 5.820312 -5.617188 4.753906 -6.742188 3.226562 -6.742188 Z M 1.871094 -4.207031 C 1.871094 -5 2.449219 -5.589844 3.226562 -5.589844 C 4.019531 -5.589844 4.625 -4.96875 4.625 -4.207031 L 4.625 -3.933594 L 1.871094 -3.933594 Z M 1.871094 -4.207031 "/></g></g></g><g fill="#ffffff" fill-opacity="1"><g transform="translate(225.965306, 90.691189)"><g><path d="M 5.199219 -9.234375 C 4.855469 -9.234375 4.59375 -8.960938 4.59375 -8.613281 L 4.59375 -6.152344 C 4.191406 -6.527344 3.644531 -6.742188 3.15625 -6.742188 C 1.773438 -6.742188 0.621094 -5.703125 0.621094 -4.320312 L 0.621094 -2.347656 C 0.621094 -0.949219 1.773438 0.128906 3.15625 0.128906 C 3.714844 0.128906 4.234375 -0.128906 4.59375 -0.503906 C 4.625 -0.1875 4.839844 0.0429688 5.199219 0.0429688 C 5.5625 0.0429688 5.820312 -0.230469 5.820312 -0.578125 L 5.820312 -8.613281 C 5.820312 -8.960938 5.546875 -9.234375 5.199219 -9.234375 Z M 3.210938 -1.082031 C 2.449219 -1.082031 1.84375 -1.628906 1.84375 -2.476562 L 1.84375 -4.222656 C 1.84375 -5 2.449219 -5.546875 3.210938 -5.546875 C 4.019531 -5.546875 4.59375 -5 4.59375 -4.222656 L 4.59375 -2.476562 C 4.59375 -1.628906 4.019531 -1.082031 3.210938 -1.082031 Z M 3.210938 -1.082031 "/></g></g></g><g fill="#ffffff" fill-opacity="1"><g transform="translate(232.822462, 90.691189)"><g/></g></g><g fill="#ffffff" fill-opacity="1"><g transform="translate(235.61719, 90.691189)"><g><path d="M 3.703125 -6.742188 C 3.210938 -6.742188 2.664062 -6.527344 2.261719 -6.152344 L 2.261719 -8.613281 C 2.261719 -8.960938 2.003906 -9.234375 1.65625 -9.234375 C 1.3125 -9.234375 1.039062 -8.960938 1.039062 -8.613281 L 1.039062 -0.578125 C 1.039062 -0.230469 1.296875 0.0429688 1.65625 0.0429688 C 2.015625 0.0429688 2.234375 -0.1875 2.261719 -0.503906 C 2.621094 -0.128906 3.140625 0.128906 3.703125 0.128906 C 5.085938 0.128906 6.238281 -0.949219 6.238281 -2.347656 L 6.238281 -4.320312 C 6.238281 -5.703125 5.085938 -6.742188 3.703125 -6.742188 Z M 5.011719 -2.476562 C 5.011719 -1.628906 4.40625 -1.082031 3.644531 -1.082031 C 2.839844 -1.082031 2.261719 -1.628906 2.261719 -2.476562 L 2.261719 -4.222656 C 2.261719 -5 2.839844 -5.546875 3.644531 -5.546875 C 4.40625 -5.546875 5.011719 -5 5.011719 -4.222656 Z M 5.011719 -2.476562 "/></g></g></g><g fill="#ffffff" fill-opacity="1"><g transform="translate(242.474346, 90.691189)"><g><path d="M 5.070312 -6.667969 C 4.8125 -6.683594 4.625 -6.539062 4.523438 -6.28125 L 2.9375 -1.757812 L 1.324219 -6.296875 C 1.253906 -6.539062 1.050781 -6.683594 0.792969 -6.667969 C 0.390625 -6.667969 0.015625 -6.253906 0.214844 -5.761719 L 2.277344 -0.476562 L 1.441406 1.714844 C 1.222656 2.21875 1.597656 2.578125 1.972656 2.59375 C 2.277344 2.59375 2.464844 2.421875 2.5625 2.160156 L 3.515625 -0.316406 C 3.53125 -0.332031 3.53125 -0.347656 3.53125 -0.375 L 5.632812 -5.761719 C 5.847656 -6.238281 5.503906 -6.667969 5.070312 -6.667969 Z M 5.070312 -6.667969 "/></g></g></g><g fill="#ffffff" fill-opacity="1"><g transform="translate(248.337505, 90.691189)"><g/></g></g><g fill="#ffffff" fill-opacity="1"><g transform="translate(251.132233, 90.691189)"><g><path d="M 4.351562 -4.769531 C 4.019531 -4.769531 3.746094 -4.507812 3.746094 -4.175781 C 3.746094 -3.847656 4.019531 -3.558594 4.351562 -3.558594 L 5.890625 -3.558594 L 5.890625 -2.910156 C 5.890625 -1.886719 5.054688 -1.125 3.960938 -1.125 C 2.792969 -1.125 1.988281 -1.929688 1.988281 -3.183594 L 1.988281 -6.050781 C 1.988281 -7.261719 2.824219 -8.039062 3.902344 -8.039062 C 4.8125 -8.039062 5.515625 -7.417969 5.792969 -6.699219 C 5.890625 -6.527344 6.007812 -6.394531 6.296875 -6.394531 C 6.714844 -6.394531 7.085938 -6.757812 6.8125 -7.304688 C 6.453125 -8.253906 5.5625 -9.277344 3.902344 -9.277344 C 2.015625 -9.277344 0.761719 -7.824219 0.761719 -6.121094 L 0.761719 -3.039062 C 0.761719 -1.339844 2.058594 0.117188 3.933594 0.117188 C 5.386719 0.117188 6.351562 -0.761719 6.757812 -1.554688 C 7.015625 -2.046875 7.03125 -2.492188 7.03125 -2.824219 L 7.03125 -4.191406 C 7.03125 -4.539062 6.726562 -4.769531 6.394531 -4.769531 Z M 4.351562 -4.769531 "/></g></g></g><g fill="#ffffff" fill-opacity="1"><g transform="translate(258.738495, 90.691189)"><g><path d="M 0.621094 -2.320312 C 0.621094 -0.9375 1.757812 0.117188 3.210938 0.117188 C 4.652344 0.117188 5.804688 -0.9375 5.804688 -2.320312 L 5.804688 -4.320312 C 5.804688 -5.703125 4.652344 -6.757812 3.210938 -6.757812 C 1.757812 -6.757812 0.621094 -5.703125 0.621094 -4.320312 Z M 1.84375 -4.207031 C 1.84375 -5.027344 2.433594 -5.546875 3.210938 -5.546875 C 3.976562 -5.546875 4.59375 -5.027344 4.59375 -4.207031 L 4.59375 -2.449219 C 4.59375 -1.597656 3.976562 -1.082031 3.210938 -1.082031 C 2.449219 -1.082031 1.84375 -1.613281 1.84375 -2.449219 Z M 1.84375 -4.207031 "/></g></g></g><g fill="#ffffff" fill-opacity="1"><g transform="translate(265.16348, 90.691189)"><g><path d="M 0.621094 -2.320312 C 0.621094 -0.9375 1.757812 0.117188 3.210938 0.117188 C 4.652344 0.117188 5.804688 -0.9375 5.804688 -2.320312 L 5.804688 -4.320312 C 5.804688 -5.703125 4.652344 -6.757812 3.210938 -6.757812 C 1.757812 -6.757812 0.621094 -5.703125 0.621094 -4.320312 Z M 1.84375 -4.207031 C 1.84375 -5.027344 2.433594 -5.546875 3.210938 -5.546875 C 3.976562 -5.546875 4.59375 -5.027344 4.59375 -4.207031 L 4.59375 -2.449219 C 4.59375 -1.597656 3.976562 -1.082031 3.210938 -1.082031 C 2.449219 -1.082031 1.84375 -1.613281 1.84375 -2.449219 Z M 1.84375 -4.207031 "/></g></g></g><g fill="#ffffff" fill-opacity="1"><g transform="translate(271.588464, 90.691189)"><g><path d="M 5.34375 -6.667969 C 5.054688 -6.667969 4.867188 -6.425781 4.867188 -6.078125 L 4.867188 -5.804688 C 4.507812 -6.351562 3.902344 -6.757812 3.125 -6.757812 C 1.757812 -6.757812 0.621094 -5.921875 0.621094 -4.320312 L 0.621094 -2.464844 C 0.621094 -0.9375 1.757812 -0.015625 3.125 -0.015625 C 3.902344 -0.015625 4.507812 -0.417969 4.867188 -0.964844 L 4.867188 -0.230469 C 4.867188 0.9375 4.582031 1.453125 3.585938 1.453125 L 1.902344 1.453125 C 1.195312 1.453125 1.195312 2.550781 1.902344 2.550781 L 3.6875 2.550781 C 4.984375 2.550781 5.804688 1.816406 5.804688 0.257812 L 5.804688 -6.078125 C 5.804688 -6.425781 5.617188 -6.667969 5.34375 -6.667969 Z M 4.582031 -2.578125 C 4.582031 -1.742188 3.976562 -1.222656 3.210938 -1.222656 C 2.449219 -1.222656 1.84375 -1.742188 1.84375 -2.578125 L 1.84375 -4.234375 C 1.84375 -5.027344 2.433594 -5.5625 3.210938 -5.5625 C 3.976562 -5.5625 4.582031 -5.027344 4.582031 -4.222656 Z M 4.582031 -2.578125 "/></g></g></g><g fill="#ffffff" fill-opacity="1"><g transform="translate(278.431223, 90.691189)"><g><path d="M 1.039062 -0.621094 C 1.039062 -0.246094 1.3125 0.0273438 1.65625 0.0273438 C 2.015625 0.0273438 2.261719 -0.246094 2.261719 -0.621094 L 2.261719 -8.613281 C 2.261719 -8.960938 2.015625 -9.234375 1.65625 -9.234375 C 1.3125 -9.234375 1.039062 -8.960938 1.039062 -8.613281 Z M 1.039062 -0.621094 "/></g></g></g><g fill="#ffffff" fill-opacity="1"><g transform="translate(281.730147, 90.691189)"><g><path d="M 3.226562 -6.742188 C 1.683594 -6.742188 0.621094 -5.648438 0.621094 -4.308594 L 0.621094 -2.304688 C 0.621094 -1.050781 1.683594 0.128906 3.226562 0.128906 C 4.378906 0.128906 4.941406 -0.546875 5.332031 -1.050781 C 5.691406 -1.511719 5.445312 -2.074219 4.882812 -2.074219 C 4.695312 -2.074219 4.550781 -2.003906 4.453125 -1.785156 C 4.320312 -1.5 3.933594 -1.066406 3.269531 -1.066406 C 2.390625 -1.066406 1.871094 -1.640625 1.871094 -2.390625 L 1.871094 -2.953125 L 5.34375 -2.953125 C 5.660156 -2.953125 5.820312 -2.996094 5.820312 -3.300781 L 5.820312 -4.265625 C 5.820312 -5.617188 4.753906 -6.742188 3.226562 -6.742188 Z M 1.871094 -4.207031 C 1.871094 -5 2.449219 -5.589844 3.226562 -5.589844 C 4.019531 -5.589844 4.625 -4.96875 4.625 -4.207031 L 4.625 -3.933594 L 1.871094 -3.933594 Z M 1.871094 -4.207031 "/></g></g></g><g fill="#ffffff" fill-opacity="1"><g transform="translate(287.982267, 90.691189)"><g><path d="M 8.328125 -9.25 C 8.210938 -9.25 8.039062 -9.25 7.851562 -9.003906 L 5.054688 -5.199219 L 2.261719 -9.003906 C 2.101562 -9.21875 1.929688 -9.25 1.785156 -9.25 C 1.453125 -9.25 1.152344 -9.03125 1.152344 -8.628906 L 1.152344 -0.546875 C 1.152344 -0.214844 1.425781 0.0585938 1.773438 0.0585938 C 2.117188 0.0585938 2.390625 -0.214844 2.390625 -0.546875 L 2.390625 -7 L 4.609375 -3.902344 C 4.738281 -3.703125 4.898438 -3.617188 5.042969 -3.617188 C 5.285156 -3.617188 5.402344 -3.761719 5.515625 -3.902344 L 7.722656 -7.015625 L 7.722656 -0.546875 C 7.722656 -0.214844 7.996094 0.0585938 8.328125 0.0585938 C 8.6875 0.0585938 8.960938 -0.214844 8.960938 -0.546875 L 8.960938 -8.628906 C 8.960938 -8.960938 8.671875 -9.25 8.328125 -9.25 Z M 8.328125 -9.25 "/></g></g></g><g fill="#ffffff" fill-opacity="1"><g transform="translate(298.095136, 90.691189)"><g><path d="M 5.214844 -6.683594 C 4.882812 -6.683594 4.636719 -6.46875 4.59375 -6.152344 C 4.234375 -6.511719 3.730469 -6.742188 3.125 -6.742188 C 1.773438 -6.742188 0.621094 -5.703125 0.621094 -4.320312 L 0.621094 -2.320312 C 0.621094 -0.949219 1.773438 0.128906 3.125 0.128906 C 3.730469 0.128906 4.234375 -0.117188 4.59375 -0.476562 C 4.636719 -0.160156 4.882812 0.0429688 5.214844 0.0429688 C 5.5625 0.0429688 5.820312 -0.214844 5.820312 -0.578125 L 5.820312 -6.066406 C 5.820312 -6.425781 5.574219 -6.683594 5.214844 -6.683594 Z M 3.226562 -1.082031 C 2.464844 -1.082031 1.859375 -1.597656 1.859375 -2.433594 L 1.859375 -4.234375 C 1.859375 -5.027344 2.464844 -5.546875 3.226562 -5.546875 C 3.992188 -5.546875 4.59375 -5.027344 4.59375 -4.222656 L 4.59375 -2.433594 C 4.59375 -1.597656 3.976562 -1.082031 3.226562 -1.082031 Z M 3.226562 -1.082031 "/></g></g></g><g fill="#ffffff" fill-opacity="1"><g transform="translate(304.966708, 90.691189)"><g><path d="M 3.617188 -6.65625 C 3.082031 -6.65625 2.621094 -6.46875 2.261719 -6.136719 C 2.246094 -6.453125 2.046875 -6.699219 1.640625 -6.699219 C 1.269531 -6.699219 1.039062 -6.425781 1.039062 -6.078125 L 1.039062 -0.589844 C 1.039062 -0.230469 1.3125 0.0429688 1.65625 0.0429688 C 2.003906 0.0429688 2.261719 -0.230469 2.261719 -0.589844 L 2.261719 -4.148438 C 2.261719 -5.011719 2.953125 -5.445312 3.660156 -5.445312 L 3.832031 -5.445312 C 4.234375 -5.445312 4.4375 -5.675781 4.4375 -6.035156 C 4.4375 -6.394531 4.207031 -6.65625 3.789062 -6.65625 Z M 3.617188 -6.65625 "/></g></g></g><g fill="#ffffff" fill-opacity="1"><g transform="translate(309.605378, 90.691189)"><g><path d="M 1.65625 -7.417969 C 2.101562 -7.417969 2.433594 -7.777344 2.433594 -8.210938 C 2.433594 -8.644531 2.101562 -9.003906 1.65625 -9.003906 C 1.222656 -9.003906 0.851562 -8.644531 0.851562 -8.210938 C 0.851562 -7.777344 1.222656 -7.417969 1.65625 -7.417969 Z M 2.261719 -6.078125 C 2.261719 -6.410156 2.015625 -6.667969 1.65625 -6.667969 C 1.3125 -6.667969 1.039062 -6.410156 1.039062 -6.078125 L 1.039062 -0.578125 C 1.039062 -0.230469 1.3125 0.0429688 1.671875 0.0429688 C 2.003906 0.0429688 2.261719 -0.246094 2.261719 -0.578125 Z M 2.261719 -6.078125 "/></g></g></g><g fill="#ffffff" fill-opacity="1"><g transform="translate(312.904303, 90.691189)"><g><path d="M 3.703125 -6.742188 C 3.140625 -6.742188 2.636719 -6.527344 2.261719 -6.164062 C 2.21875 -6.46875 2.003906 -6.683594 1.640625 -6.683594 C 1.269531 -6.683594 1.039062 -6.425781 1.039062 -6.066406 L 1.039062 -0.589844 C 1.039062 -0.246094 1.339844 0.0429688 1.671875 0.0429688 C 2.003906 0.0429688 2.261719 -0.246094 2.261719 -0.589844 L 2.261719 -4.265625 C 2.261719 -5.011719 2.867188 -5.5625 3.628906 -5.5625 C 4.394531 -5.5625 5 -5.011719 5 -4.265625 L 5 -0.589844 C 5 -0.246094 5.273438 0.0429688 5.605469 0.0429688 C 5.933594 0.0429688 6.238281 -0.246094 6.238281 -0.589844 L 6.238281 -4.335938 C 6.238281 -5.71875 5.085938 -6.742188 3.703125 -6.742188 Z M 3.703125 -6.742188 "/></g></g></g><g fill="#ffffff" fill-opacity="1"><g transform="translate(320.193631, 90.691189)"><g><path d="M 3.226562 -6.742188 C 1.683594 -6.742188 0.621094 -5.648438 0.621094 -4.308594 L 0.621094 -2.304688 C 0.621094 -1.050781 1.683594 0.128906 3.226562 0.128906 C 4.378906 0.128906 4.941406 -0.546875 5.332031 -1.050781 C 5.691406 -1.511719 5.445312 -2.074219 4.882812 -2.074219 C 4.695312 -2.074219 4.550781 -2.003906 4.453125 -1.785156 C 4.320312 -1.5 3.933594 -1.066406 3.269531 -1.066406 C 2.390625 -1.066406 1.871094 -1.640625 1.871094 -2.390625 L 1.871094 -2.953125 L 5.34375 -2.953125 C 5.660156 -2.953125 5.820312 -2.996094 5.820312 -3.300781 L 5.820312 -4.265625 C 5.820312 -5.617188 4.753906 -6.742188 3.226562 -6.742188 Z M 1.871094 -4.207031 C 1.871094 -5 2.449219 -5.589844 3.226562 -5.589844 C 4.019531 -5.589844 4.625 -4.96875 4.625 -4.207031 L 4.625 -3.933594 L 1.871094 -3.933594 Z M 1.871094 -4.207031 "/></g></g></g></svg>