<?xml version="1.0" standalone="no"?>
<!DOCTYPE svg PUBLIC "-//W3C//DTD SVG 20010904//EN"
 "http://www.w3.org/TR/2001/REC-SVG-20010904/DTD/svg10.dtd">
<svg version="1.0" xmlns="http://www.w3.org/2000/svg"
 width="1375.000000pt" height="1375.000000pt" viewBox="0 0 1375.000000 1375.000000"
 preserveAspectRatio="xMidYMid meet">

<g transform="translate(0.000000,1375.000000) scale(0.100000,-0.100000)"
fill="#fff" stroke="none">
<path d="M6562 8574 c-57 -28 -96 -69 -123 -129 -18 -38 -19 -101 -19 -1261
l0 -1222 28 -53 c16 -31 46 -68 71 -86 89 -68 -171 -63 3186 -61 l3040 3 45
21 c59 27 107 76 136 139 l24 50 0 1210 0 1210 -24 50 c-28 61 -77 112 -131
136 -38 18 -158 19 -3111 19 l-3070 0 -52 -26z m6203 -66 c37 -20 68 -53 89
-95 14 -29 16 -146 16 -1225 l0 -1194 -22 -44 c-14 -26 -41 -57 -66 -75 l-44
-30 -3041 0 c-1673 0 -3054 3 -3069 8 -38 10 -98 65 -114 104 -21 48 -21 2408
0 2457 18 43 80 93 131 105 24 5 1264 8 3065 7 2794 -1 3027 -2 3055 -18z"/>
<path d="M7075 8331 c-188 -31 -297 -106 -369 -254 -41 -83 -61 -156 -76 -277
-14 -113 -13 -1194 1 -1294 32 -236 159 -388 374 -452 84 -25 263 -23 367 5
149 39 234 101 295 216 59 113 65 151 70 468 l5 287 -228 -2 -229 -3 -5 -250
c-3 -174 -9 -257 -18 -272 -27 -48 -87 -67 -133 -43 -10 6 -27 25 -36 43 -17
30 -18 81 -18 689 0 652 0 657 21 685 28 37 64 49 111 37 66 -16 73 -44 73
-286 l0 -208 226 0 226 0 -4 268 c-4 240 -6 273 -25 323 -73 198 -241 310
-484 323 -52 2 -116 1 -144 -3z"/>
<path d="M10715 8330 c-257 -36 -393 -199 -435 -520 -7 -57 -10 -290 -7 -710
3 -534 5 -633 19 -677 59 -191 159 -300 334 -359 148 -51 399 -30 523 43 109
64 172 148 211 283 20 67 23 106 27 358 l5 282 -231 0 -231 0 0 -240 c0 -183
-3 -249 -14 -274 -43 -104 -174 -80 -191 35 -3 24 -5 326 -3 671 3 619 3 627
24 655 28 37 64 49 111 37 66 -16 73 -44 73 -286 l0 -208 225 0 225 0 0 233
c0 163 -5 252 -15 300 -37 178 -172 314 -359 361 -74 20 -214 27 -291 16z"/>
<path d="M7890 7180 l0 -1130 225 0 225 0 0 515 0 515 105 0 105 0 2 -512 3
-513 223 -3 222 -2 0 1130 0 1130 -225 0 -225 0 0 -400 0 -400 -105 0 -105 0
0 400 0 400 -225 0 -225 0 0 -1130z"/>
<path d="M9202 7183 l3 -1128 468 -3 467 -2 0 220 0 220 -237 2 -238 3 -3 258
-2 257 215 0 215 0 0 215 0 215 -215 0 -215 0 0 220 0 220 225 0 225 0 0 215
0 215 -455 0 -455 0 2 -1127z"/>
<path d="M11540 7180 l0 -1130 225 0 225 0 2 536 3 536 120 -533 120 -534 233
-3 c153 -1 232 1 232 8 0 6 -68 282 -151 614 l-151 604 121 499 c67 274 124
506 127 516 5 16 -10 17 -223 17 l-228 0 -99 -428 c-54 -235 -103 -434 -107
-442 -5 -8 -9 184 -9 428 l0 442 -220 0 -220 0 0 -1130z"/>
<path d="M985 8503 c-46 -24 -66 -45 -86 -88 -18 -38 -19 -96 -19 -1230 0
-1141 1 -1192 19 -1231 10 -23 36 -54 57 -70 l37 -29 2600 -3 2599 -2 39 22
c21 12 51 39 66 61 l28 40 3 1200 2 1200 -21 45 c-15 29 -37 54 -67 73 l-46
29 -2590 0 c-2345 -1 -2594 -2 -2621 -17z m2092 -174 c239 -33 386 -179 428
-426 14 -80 16 -185 12 -745 -4 -720 -3 -708 -69 -847 -35 -74 -119 -168 -182
-205 -107 -62 -282 -88 -424 -62 -171 30 -291 116 -361 257 -76 152 -76 149
-76 904 0 523 3 683 13 730 18 78 71 189 116 241 109 128 313 185 543 153z
m1348 -15 c184 -49 317 -186 354 -362 6 -30 11 -158 11 -298 l0 -244 -222 2
-223 3 -5 220 c-4 155 -9 227 -18 243 -25 44 -102 56 -145 22 -46 -36 -48 -78
-45 -746 3 -557 5 -622 20 -650 28 -51 92 -69 137 -38 46 32 51 66 51 324 l0
240 230 0 230 0 0 -252 c-1 -291 -11 -374 -63 -481 -75 -158 -219 -243 -444
-262 -204 -18 -392 57 -498 197 -51 68 -82 144 -101 248 -16 92 -20 1182 -4
1325 35 308 172 480 423 525 70 12 238 4 312 -16z m-2502 -22 c155 -45 242
-142 288 -320 19 -71 20 -122 26 -697 6 -636 2 -732 -33 -870 -52 -201 -178
-317 -377 -344 -43 -6 -220 -11 -393 -11 l-314 0 0 1128 c0 621 3 1132 8 1136
4 5 169 6 367 3 324 -4 367 -6 428 -25z m3477 -412 l5 -435 99 425 c54 234
101 431 103 438 4 9 59 12 229 12 173 0 224 -3 224 -12 0 -7 -56 -241 -125
-520 l-124 -508 149 -601 c83 -330 150 -607 150 -615 0 -12 -35 -14 -232 -12
l-231 3 -123 540 -123 540 0 -542 -1 -543 -225 0 -225 0 0 1135 0 1135 223 -2
222 -3 5 -435z"/>
<path d="M2914 7909 c-11 -6 -29 -25 -40 -42 -18 -31 -19 -59 -19 -682 0 -602
1 -652 18 -682 21 -39 45 -53 91 -53 44 0 71 24 85 77 15 52 15 1274 1 1325
-6 21 -21 44 -33 53 -24 17 -72 19 -103 4z"/>
<path d="M1580 7191 l0 -731 66 0 c76 0 98 9 119 50 13 25 15 117 15 662 0
391 -4 647 -10 669 -16 56 -40 71 -120 77 l-70 5 0 -732z"/>
</g>
</svg>
