<?xml version="1.0" standalone="no"?>
<!DOCTYPE svg PUBLIC "-//W3C//DTD SVG 20010904//EN"
 "http://www.w3.org/TR/2001/REC-SVG-20010904/DTD/svg10.dtd">
<svg version="1.0" xmlns="http://www.w3.org/2000/svg"
 width="1438.000000pt" height="1438.000000pt" viewBox="0 0 1438.000000 1438.000000"
 preserveAspectRatio="xMidYMid meet">

<g transform="translate(0.000000,1438.000000) scale(0.100000,-0.100000)"
fill="#ffffff" stroke="none">
<path d="M9740 9061 c0 -16 -3 -36 -6 -45 -6 -15 -138 -16 -1398 -16 -1581 0
-1448 7 -1542 -85 -91 -90 -85 24 -82 -1421 l3 -1269 22 -41 c24 -45 84 -103
135 -131 32 -17 169 -18 3242 -21 l3209 -2 51 23 c73 34 111 70 143 135 l28
57 0 1270 0 1270 -24 49 c-29 58 -77 108 -134 138 l-42 23 -1460 5 -1460 6
-330 42 c-181 23 -336 42 -342 42 -8 0 -13 -12 -13 -29z m-20 -155 c0 -7 -58
-497 -130 -1087 -71 -590 -129 -1074 -127 -1075 1 -1 83 -11 182 -23 99 -11
314 -37 477 -58 164 -20 301 -34 304 -31 3 3 17 104 31 223 20 162 24 218 15
224 -7 4 -116 20 -244 35 -128 15 -233 28 -234 29 -4 5 63 527 68 532 3 3 101
-6 218 -20 116 -15 214 -24 217 -21 8 8 57 425 51 432 -3 3 -103 17 -223 31
l-217 26 5 26 c3 14 15 114 28 221 12 107 25 199 29 203 4 5 107 -4 229 -19
121 -15 223 -25 226 -22 3 3 14 81 25 174 11 93 23 179 25 192 l5 22 1308 0
1308 0 51 -25 c33 -17 61 -41 79 -68 l29 -42 0 -1271 0 -1270 -24 -36 c-30
-44 -79 -77 -128 -89 -51 -11 -6306 -11 -6357 0 -46 11 -104 56 -131 102 -20
33 -20 55 -23 1239 -2 663 0 1233 3 1268 8 77 48 136 115 170 l44 22 1383 0
c1171 0 1383 -2 1383 -14z" fill="#FFFFFF"/>
<path d="M7348 8705 c-214 -44 -345 -189 -401 -440 -21 -98 -22 -117 -22 -775
0 -748 0 -749 66 -887 43 -91 144 -192 231 -233 174 -81 419 -79 596 5 124 59
205 160 249 312 13 47 17 115 21 361 l4 302 -235 0 -235 0 -4 -252 c-3 -207
-7 -260 -21 -291 -30 -69 -126 -84 -169 -26 -35 46 -39 136 -36 779 3 547 5
629 19 660 22 49 41 62 95 62 96 0 113 -52 114 -354 l0 -168 235 0 235 0 0
188 c-1 231 -13 361 -41 438 -54 147 -171 252 -336 304 -88 28 -270 35 -365
15z"/>
<path d="M11205 8714 c-178 -28 -306 -117 -378 -264 -84 -171 -89 -236 -85
-1025 3 -585 5 -656 21 -710 83 -279 293 -418 607 -402 280 15 448 137 511
373 19 69 22 115 26 372 l5 292 -241 0 -241 0 0 -242 c0 -134 -5 -259 -10
-279 -31 -112 -169 -112 -200 0 -13 48 -13 1323 0 1371 14 51 31 70 70 79 48
10 97 -4 117 -36 16 -23 18 -58 21 -255 l3 -228 235 0 234 0 0 243 c0 347 -23
432 -149 557 -107 106 -219 149 -406 155 -60 2 -123 1 -140 -1z"/>
<path d="M8250 7515 l0 -1185 235 0 235 0 0 540 0 540 110 0 110 0 0 -540 0
-540 235 0 235 0 0 1185 0 1185 -232 -2 -233 -3 -3 -422 -2 -423 -110 0 -110
0 0 425 0 425 -235 0 -235 0 0 -1185z"/>
<path d="M12070 7515 l0 -1185 235 0 235 0 2 554 3 554 125 -554 125 -554 242
0 c157 0 243 4 243 10 0 6 -70 289 -155 630 -85 341 -155 630 -155 643 0 18
235 999 256 1070 5 16 -11 17 -233 17 l-239 0 -103 -447 c-57 -247 -108 -457
-112 -468 -4 -11 -8 190 -8 448 l-1 467 -230 0 -230 0 0 -1185z"/>
<path d="M1055 8905 c-50 -17 -122 -95 -130 -138 -3 -18 -4 -593 -3 -1278 l3
-1245 24 -36 c30 -44 79 -77 128 -89 56 -13 5320 -12 5381 1 60 13 118 60 143
114 18 39 19 96 19 1271 0 871 -3 1242 -11 1270 -15 52 -82 119 -134 134 -29
8 -784 11 -2710 11 -2264 -1 -2676 -3 -2710 -15z m2267 -218 c178 -57 282
-171 335 -367 16 -59 18 -128 18 -780 0 -805 1 -797 -75 -948 -64 -127 -156
-207 -290 -252 -89 -30 -278 -39 -371 -16 -191 45 -324 169 -384 357 -42 133
-47 244 -43 934 4 614 5 643 25 710 29 99 45 132 96 201 68 92 185 159 322
184 92 17 281 5 367 -23z m1308 9 c137 -38 266 -139 324 -254 48 -95 56 -154
56 -435 l0 -257 -232 2 -233 3 -5 230 c-6 281 -12 295 -113 295 -55 0 -82 -27
-97 -96 -7 -33 -10 -264 -8 -699 3 -587 5 -653 20 -681 9 -17 24 -36 33 -44
23 -19 92 -16 117 6 44 39 48 69 48 334 l0 250 241 0 241 0 -5 -302 c-5 -331
-10 -364 -69 -481 -62 -123 -186 -209 -353 -243 -109 -22 -284 -15 -375 15
-170 58 -291 189 -346 376 -16 54 -18 124 -22 705 -4 783 2 855 84 1027 64
133 180 223 334 258 80 18 279 13 360 -9z m-2676 -11 c179 -32 286 -125 347
-303 35 -101 40 -248 37 -927 -4 -644 -4 -651 -27 -735 -65 -235 -183 -350
-392 -380 -35 -5 -218 -10 -406 -10 l-343 0 0 1185 0 1185 353 0 c256 -1 373
-5 431 -15z m3696 -440 l5 -449 103 444 c57 245 106 448 108 452 3 5 111 8
241 8 219 0 235 -1 231 -17 -2 -10 -62 -255 -133 -544 l-128 -525 160 -642
160 -642 -246 0 -246 0 -125 556 -125 557 -3 -557 -2 -556 -235 0 -235 0 0
1185 0 1185 233 -2 232 -3 5 -450z"/>
<path d="M3025 8256 c-13 -13 -28 -41 -34 -62 -13 -47 -15 -1276 -2 -1343 16
-83 71 -122 139 -100 69 23 67 -1 70 734 2 363 0 680 -3 704 -9 62 -41 91
-100 91 -35 0 -52 -6 -70 -24z"/>
<path d="M1650 7515 l0 -765 63 0 c72 0 121 24 138 66 6 17 9 272 7 713 -3
740 -1 716 -55 740 -13 6 -53 11 -88 11 l-65 0 0 -765z"/>
</g>
</svg>
